<mxfile host="app.diagrams.net" agent="Mozilla/5.0 (Windows NT 10.0; Win64; x64) AppleWebKit/537.36 (KHTML, like Gecko) Chrome/132.0.0.0 Safari/537.36 Edg/132.0.0.0" version="26.0.10">
  <diagram name="Page-1" id="7QtzbE2ZOPBtG0B_UihZ">
    <mxGraphModel dx="2837" dy="1479" grid="1" gridSize="10" guides="1" tooltips="1" connect="1" arrows="1" fold="1" page="0" pageScale="1" pageWidth="850" pageHeight="1100" math="0" shadow="0">
      <root>
        <mxCell id="0" />
        <mxCell id="1" parent="0" />
        <mxCell id="5LUECbAPxFqjS4Xc9n5A-195" value="" style="rounded=1;whiteSpace=wrap;html=1;fillColor=none;" vertex="1" parent="1">
          <mxGeometry x="-530" y="10" width="480" height="640" as="geometry" />
        </mxCell>
        <mxCell id="5LUECbAPxFqjS4Xc9n5A-4" style="edgeStyle=orthogonalEdgeStyle;rounded=0;orthogonalLoop=1;jettySize=auto;html=1;" edge="1" parent="1" source="5LUECbAPxFqjS4Xc9n5A-1" target="5LUECbAPxFqjS4Xc9n5A-2">
          <mxGeometry relative="1" as="geometry" />
        </mxCell>
        <mxCell id="5LUECbAPxFqjS4Xc9n5A-1" value="User" style="shape=umlActor;verticalLabelPosition=bottom;verticalAlign=top;html=1;outlineConnect=0;" vertex="1" parent="1">
          <mxGeometry x="70" y="160" width="30" height="60" as="geometry" />
        </mxCell>
        <mxCell id="5LUECbAPxFqjS4Xc9n5A-6" style="edgeStyle=orthogonalEdgeStyle;rounded=0;orthogonalLoop=1;jettySize=auto;html=1;entryX=0;entryY=0.5;entryDx=0;entryDy=0;" edge="1" parent="1" source="5LUECbAPxFqjS4Xc9n5A-2" target="5LUECbAPxFqjS4Xc9n5A-5">
          <mxGeometry relative="1" as="geometry" />
        </mxCell>
        <mxCell id="5LUECbAPxFqjS4Xc9n5A-2" value="Access Landing page" style="ellipse;whiteSpace=wrap;html=1;aspect=fixed;fillColor=#647687;fontColor=#ffffff;strokeColor=#314354;" vertex="1" parent="1">
          <mxGeometry x="170" y="150" width="80" height="80" as="geometry" />
        </mxCell>
        <mxCell id="5LUECbAPxFqjS4Xc9n5A-8" style="edgeStyle=orthogonalEdgeStyle;rounded=0;orthogonalLoop=1;jettySize=auto;html=1;" edge="1" parent="1" source="5LUECbAPxFqjS4Xc9n5A-5" target="5LUECbAPxFqjS4Xc9n5A-7">
          <mxGeometry relative="1" as="geometry" />
        </mxCell>
        <mxCell id="5LUECbAPxFqjS4Xc9n5A-5" value="Login Screen" style="rounded=1;whiteSpace=wrap;html=1;fillColor=#d80073;strokeColor=#A50040;fontColor=#ffffff;" vertex="1" parent="1">
          <mxGeometry x="330" y="160" width="120" height="60" as="geometry" />
        </mxCell>
        <mxCell id="5LUECbAPxFqjS4Xc9n5A-7" value="Have Account?" style="rhombus;whiteSpace=wrap;html=1;fillColor=#0050ef;fontColor=#ffffff;strokeColor=#001DBC;" vertex="1" parent="1">
          <mxGeometry x="510" y="150" width="80" height="80" as="geometry" />
        </mxCell>
        <mxCell id="5LUECbAPxFqjS4Xc9n5A-74" style="edgeStyle=orthogonalEdgeStyle;rounded=0;orthogonalLoop=1;jettySize=auto;html=1;" edge="1" parent="1" source="5LUECbAPxFqjS4Xc9n5A-9" target="5LUECbAPxFqjS4Xc9n5A-189">
          <mxGeometry relative="1" as="geometry">
            <mxPoint x="705" y="120" as="targetPoint" />
          </mxGeometry>
        </mxCell>
        <mxCell id="5LUECbAPxFqjS4Xc9n5A-9" value="YES" style="rounded=1;whiteSpace=wrap;html=1;fillColor=#008a00;fontColor=#ffffff;strokeColor=#005700;" vertex="1" parent="1">
          <mxGeometry x="680" y="180" width="50" height="20" as="geometry" />
        </mxCell>
        <mxCell id="5LUECbAPxFqjS4Xc9n5A-19" style="edgeStyle=orthogonalEdgeStyle;rounded=0;orthogonalLoop=1;jettySize=auto;html=1;entryX=0.5;entryY=0;entryDx=0;entryDy=0;exitX=0.5;exitY=1;exitDx=0;exitDy=0;" edge="1" parent="1" source="5LUECbAPxFqjS4Xc9n5A-10" target="5LUECbAPxFqjS4Xc9n5A-18">
          <mxGeometry relative="1" as="geometry" />
        </mxCell>
        <mxCell id="5LUECbAPxFqjS4Xc9n5A-10" value="NO" style="rounded=1;whiteSpace=wrap;html=1;fillColor=#e51400;fontColor=#ffffff;strokeColor=#B20000;" vertex="1" parent="1">
          <mxGeometry x="525" y="300" width="50" height="20" as="geometry" />
        </mxCell>
        <mxCell id="5LUECbAPxFqjS4Xc9n5A-13" value="NO" style="rounded=1;whiteSpace=wrap;html=1;fillColor=#e51400;fontColor=#ffffff;strokeColor=#B20000;" vertex="1" parent="1">
          <mxGeometry x="220" y="430" width="50" height="20" as="geometry" />
        </mxCell>
        <mxCell id="5LUECbAPxFqjS4Xc9n5A-22" style="edgeStyle=orthogonalEdgeStyle;rounded=0;orthogonalLoop=1;jettySize=auto;html=1;" edge="1" parent="1" source="5LUECbAPxFqjS4Xc9n5A-18" target="5LUECbAPxFqjS4Xc9n5A-20">
          <mxGeometry relative="1" as="geometry" />
        </mxCell>
        <mxCell id="5LUECbAPxFqjS4Xc9n5A-18" value="Registration Screen" style="rounded=1;whiteSpace=wrap;html=1;fillColor=#6a00ff;fontColor=#ffffff;strokeColor=#3700CC;" vertex="1" parent="1">
          <mxGeometry x="490" y="410" width="120" height="60" as="geometry" />
        </mxCell>
        <mxCell id="5LUECbAPxFqjS4Xc9n5A-26" value="" style="edgeStyle=orthogonalEdgeStyle;rounded=0;orthogonalLoop=1;jettySize=auto;html=1;" edge="1" parent="1" source="5LUECbAPxFqjS4Xc9n5A-20" target="5LUECbAPxFqjS4Xc9n5A-18">
          <mxGeometry relative="1" as="geometry" />
        </mxCell>
        <mxCell id="5LUECbAPxFqjS4Xc9n5A-20" value="Registration Success?" style="rhombus;whiteSpace=wrap;html=1;fillColor=#0050ef;fontColor=#ffffff;strokeColor=#001DBC;" vertex="1" parent="1">
          <mxGeometry x="340" y="390" width="100" height="100" as="geometry" />
        </mxCell>
        <mxCell id="5LUECbAPxFqjS4Xc9n5A-28" style="edgeStyle=orthogonalEdgeStyle;rounded=0;orthogonalLoop=1;jettySize=auto;html=1;entryX=0.5;entryY=1;entryDx=0;entryDy=0;" edge="1" parent="1" source="5LUECbAPxFqjS4Xc9n5A-23" target="5LUECbAPxFqjS4Xc9n5A-5">
          <mxGeometry relative="1" as="geometry" />
        </mxCell>
        <mxCell id="5LUECbAPxFqjS4Xc9n5A-23" value="YES" style="rounded=1;whiteSpace=wrap;html=1;fillColor=#008a00;fontColor=#ffffff;strokeColor=#005700;" vertex="1" parent="1">
          <mxGeometry x="365" y="300" width="50" height="20" as="geometry" />
        </mxCell>
        <mxCell id="5LUECbAPxFqjS4Xc9n5A-24" value="" style="endArrow=none;dashed=1;html=1;dashPattern=1 3;strokeWidth=2;rounded=0;entryX=0.5;entryY=1;entryDx=0;entryDy=0;exitX=0.5;exitY=0;exitDx=0;exitDy=0;" edge="1" parent="1" source="5LUECbAPxFqjS4Xc9n5A-10" target="5LUECbAPxFqjS4Xc9n5A-7">
          <mxGeometry width="50" height="50" relative="1" as="geometry">
            <mxPoint x="700" y="320" as="sourcePoint" />
            <mxPoint x="660" y="230" as="targetPoint" />
          </mxGeometry>
        </mxCell>
        <mxCell id="5LUECbAPxFqjS4Xc9n5A-25" value="" style="endArrow=none;dashed=1;html=1;dashPattern=1 3;strokeWidth=2;rounded=0;entryX=1;entryY=0.5;entryDx=0;entryDy=0;exitX=0;exitY=0.5;exitDx=0;exitDy=0;" edge="1" parent="1" source="5LUECbAPxFqjS4Xc9n5A-9" target="5LUECbAPxFqjS4Xc9n5A-7">
          <mxGeometry width="50" height="50" relative="1" as="geometry">
            <mxPoint x="630" y="270" as="sourcePoint" />
            <mxPoint x="590" y="180" as="targetPoint" />
          </mxGeometry>
        </mxCell>
        <mxCell id="5LUECbAPxFqjS4Xc9n5A-27" value="" style="endArrow=none;dashed=1;html=1;dashPattern=1 3;strokeWidth=2;rounded=0;entryX=0.5;entryY=1;entryDx=0;entryDy=0;" edge="1" parent="1" source="5LUECbAPxFqjS4Xc9n5A-20" target="5LUECbAPxFqjS4Xc9n5A-23">
          <mxGeometry width="50" height="50" relative="1" as="geometry">
            <mxPoint x="560" y="330" as="sourcePoint" />
            <mxPoint x="560" y="240" as="targetPoint" />
          </mxGeometry>
        </mxCell>
        <mxCell id="5LUECbAPxFqjS4Xc9n5A-34" value="" style="endArrow=none;dashed=1;html=1;dashPattern=1 3;strokeWidth=2;rounded=0;entryX=1;entryY=0.5;entryDx=0;entryDy=0;exitX=0;exitY=0.5;exitDx=0;exitDy=0;" edge="1" parent="1" source="5LUECbAPxFqjS4Xc9n5A-20" target="5LUECbAPxFqjS4Xc9n5A-13">
          <mxGeometry width="50" height="50" relative="1" as="geometry">
            <mxPoint x="400" y="400" as="sourcePoint" />
            <mxPoint x="400" y="330" as="targetPoint" />
          </mxGeometry>
        </mxCell>
        <mxCell id="5LUECbAPxFqjS4Xc9n5A-68" style="edgeStyle=orthogonalEdgeStyle;rounded=0;orthogonalLoop=1;jettySize=auto;html=1;entryX=0.5;entryY=1;entryDx=0;entryDy=0;endArrow=block;endFill=0;dashed=1;dashPattern=1 4;" edge="1" parent="1" source="5LUECbAPxFqjS4Xc9n5A-37" target="5LUECbAPxFqjS4Xc9n5A-18">
          <mxGeometry relative="1" as="geometry">
            <Array as="points">
              <mxPoint x="115" y="590" />
              <mxPoint x="550" y="590" />
            </Array>
          </mxGeometry>
        </mxCell>
        <mxCell id="5LUECbAPxFqjS4Xc9n5A-37" value="Error Message" style="shape=callout;whiteSpace=wrap;html=1;perimeter=calloutPerimeter;" vertex="1" parent="1">
          <mxGeometry x="70" y="420" width="90" height="70" as="geometry" />
        </mxCell>
        <mxCell id="5LUECbAPxFqjS4Xc9n5A-38" style="edgeStyle=orthogonalEdgeStyle;rounded=0;orthogonalLoop=1;jettySize=auto;html=1;entryX=0;entryY=0;entryDx=90;entryDy=20;entryPerimeter=0;" edge="1" parent="1" source="5LUECbAPxFqjS4Xc9n5A-13" target="5LUECbAPxFqjS4Xc9n5A-37">
          <mxGeometry relative="1" as="geometry" />
        </mxCell>
        <mxCell id="5LUECbAPxFqjS4Xc9n5A-50" value="" style="endArrow=oval;html=1;rounded=0;exitX=0.25;exitY=0;exitDx=0;exitDy=0;endFill=1;entryX=0.5;entryY=1;entryDx=0;entryDy=0;" edge="1" parent="1" source="5LUECbAPxFqjS4Xc9n5A-5" target="5LUECbAPxFqjS4Xc9n5A-51">
          <mxGeometry width="50" height="50" relative="1" as="geometry">
            <mxPoint x="520" y="170" as="sourcePoint" />
            <mxPoint x="360" y="120" as="targetPoint" />
          </mxGeometry>
        </mxCell>
        <mxCell id="5LUECbAPxFqjS4Xc9n5A-51" value="Email" style="text;html=1;align=center;verticalAlign=middle;whiteSpace=wrap;rounded=0;" vertex="1" parent="1">
          <mxGeometry x="330" y="90" width="60" height="30" as="geometry" />
        </mxCell>
        <mxCell id="5LUECbAPxFqjS4Xc9n5A-53" value="" style="endArrow=oval;html=1;rounded=0;endFill=1;entryX=0.5;entryY=1;entryDx=0;entryDy=0;" edge="1" parent="1" target="5LUECbAPxFqjS4Xc9n5A-54">
          <mxGeometry width="50" height="50" relative="1" as="geometry">
            <mxPoint x="420" y="160" as="sourcePoint" />
            <mxPoint x="410" y="120" as="targetPoint" />
          </mxGeometry>
        </mxCell>
        <mxCell id="5LUECbAPxFqjS4Xc9n5A-54" value="Pass" style="text;html=1;align=center;verticalAlign=middle;whiteSpace=wrap;rounded=0;" vertex="1" parent="1">
          <mxGeometry x="390" y="90" width="60" height="30" as="geometry" />
        </mxCell>
        <mxCell id="5LUECbAPxFqjS4Xc9n5A-64" style="edgeStyle=orthogonalEdgeStyle;rounded=0;orthogonalLoop=1;jettySize=auto;html=1;entryX=1;entryY=0.5;entryDx=0;entryDy=0;endArrow=none;endFill=1;startFill=1;startArrow=oval;" edge="1" parent="1" source="5LUECbAPxFqjS4Xc9n5A-56" target="5LUECbAPxFqjS4Xc9n5A-18">
          <mxGeometry relative="1" as="geometry" />
        </mxCell>
        <mxCell id="5LUECbAPxFqjS4Xc9n5A-56" value="Pass" style="text;html=1;align=center;verticalAlign=middle;whiteSpace=wrap;rounded=0;" vertex="1" parent="1">
          <mxGeometry x="660" y="425" width="60" height="30" as="geometry" />
        </mxCell>
        <mxCell id="5LUECbAPxFqjS4Xc9n5A-62" style="edgeStyle=orthogonalEdgeStyle;rounded=0;orthogonalLoop=1;jettySize=auto;html=1;entryX=1.004;entryY=0.144;entryDx=0;entryDy=0;entryPerimeter=0;endArrow=none;endFill=1;startFill=1;startArrow=oval;" edge="1" parent="1" source="5LUECbAPxFqjS4Xc9n5A-57" target="5LUECbAPxFqjS4Xc9n5A-18">
          <mxGeometry relative="1" as="geometry" />
        </mxCell>
        <mxCell id="5LUECbAPxFqjS4Xc9n5A-57" value="Email" style="text;html=1;align=center;verticalAlign=middle;whiteSpace=wrap;rounded=0;" vertex="1" parent="1">
          <mxGeometry x="660" y="380" width="60" height="30" as="geometry" />
        </mxCell>
        <mxCell id="5LUECbAPxFqjS4Xc9n5A-65" style="edgeStyle=orthogonalEdgeStyle;rounded=0;orthogonalLoop=1;jettySize=auto;html=1;entryX=1;entryY=0.75;entryDx=0;entryDy=0;endArrow=none;endFill=1;startFill=1;startArrow=oval;" edge="1" parent="1" source="5LUECbAPxFqjS4Xc9n5A-63" target="5LUECbAPxFqjS4Xc9n5A-18">
          <mxGeometry relative="1" as="geometry" />
        </mxCell>
        <mxCell id="5LUECbAPxFqjS4Xc9n5A-63" value="Confirm Pass" style="text;html=1;align=center;verticalAlign=middle;whiteSpace=wrap;rounded=0;" vertex="1" parent="1">
          <mxGeometry x="660" y="470" width="60" height="30" as="geometry" />
        </mxCell>
        <mxCell id="5LUECbAPxFqjS4Xc9n5A-179" style="edgeStyle=orthogonalEdgeStyle;rounded=0;orthogonalLoop=1;jettySize=auto;html=1;exitX=1;exitY=0.5;exitDx=0;exitDy=0;" edge="1" parent="1" source="5LUECbAPxFqjS4Xc9n5A-189" target="5LUECbAPxFqjS4Xc9n5A-121">
          <mxGeometry relative="1" as="geometry">
            <mxPoint x="750" y="75" as="sourcePoint" />
          </mxGeometry>
        </mxCell>
        <mxCell id="5LUECbAPxFqjS4Xc9n5A-84" style="edgeStyle=orthogonalEdgeStyle;rounded=0;orthogonalLoop=1;jettySize=auto;html=1;entryX=0.5;entryY=1;entryDx=0;entryDy=0;exitX=0.25;exitY=0;exitDx=0;exitDy=0;" edge="1" parent="1" source="5LUECbAPxFqjS4Xc9n5A-79" target="5LUECbAPxFqjS4Xc9n5A-83">
          <mxGeometry relative="1" as="geometry" />
        </mxCell>
        <mxCell id="5LUECbAPxFqjS4Xc9n5A-87" style="edgeStyle=orthogonalEdgeStyle;rounded=0;orthogonalLoop=1;jettySize=auto;html=1;entryX=0.5;entryY=1;entryDx=0;entryDy=0;" edge="1" parent="1" source="5LUECbAPxFqjS4Xc9n5A-79" target="5LUECbAPxFqjS4Xc9n5A-86">
          <mxGeometry relative="1" as="geometry" />
        </mxCell>
        <mxCell id="5LUECbAPxFqjS4Xc9n5A-90" style="edgeStyle=orthogonalEdgeStyle;rounded=0;orthogonalLoop=1;jettySize=auto;html=1;entryX=0.5;entryY=1;entryDx=0;entryDy=0;exitX=0.75;exitY=0;exitDx=0;exitDy=0;" edge="1" parent="1" source="5LUECbAPxFqjS4Xc9n5A-79" target="5LUECbAPxFqjS4Xc9n5A-88">
          <mxGeometry relative="1" as="geometry" />
        </mxCell>
        <mxCell id="5LUECbAPxFqjS4Xc9n5A-79" value="Sidebar" style="rounded=1;whiteSpace=wrap;html=1;fillColor=#f0a30a;fontColor=#000000;strokeColor=#BD7000;" vertex="1" parent="1">
          <mxGeometry x="852.5" y="-100" width="235" height="60" as="geometry" />
        </mxCell>
        <mxCell id="5LUECbAPxFqjS4Xc9n5A-83" value="Switch Theme" style="shape=parallelogram;perimeter=parallelogramPerimeter;whiteSpace=wrap;html=1;fixedSize=1;" vertex="1" parent="1">
          <mxGeometry x="790" y="-220" width="120" height="60" as="geometry" />
        </mxCell>
        <mxCell id="5LUECbAPxFqjS4Xc9n5A-86" value="Logout" style="shape=parallelogram;perimeter=parallelogramPerimeter;whiteSpace=wrap;html=1;fixedSize=1;" vertex="1" parent="1">
          <mxGeometry x="910" y="-220" width="120" height="60" as="geometry" />
        </mxCell>
        <mxCell id="5LUECbAPxFqjS4Xc9n5A-88" value="Hidde / Show&lt;div&gt;Sidebar&lt;/div&gt;" style="shape=parallelogram;perimeter=parallelogramPerimeter;whiteSpace=wrap;html=1;fixedSize=1;" vertex="1" parent="1">
          <mxGeometry x="1030" y="-220" width="120" height="60" as="geometry" />
        </mxCell>
        <mxCell id="5LUECbAPxFqjS4Xc9n5A-123" value="" style="edgeStyle=orthogonalEdgeStyle;rounded=0;orthogonalLoop=1;jettySize=auto;html=1;" edge="1" parent="1" source="5LUECbAPxFqjS4Xc9n5A-121" target="5LUECbAPxFqjS4Xc9n5A-122">
          <mxGeometry relative="1" as="geometry" />
        </mxCell>
        <mxCell id="5LUECbAPxFqjS4Xc9n5A-177" style="edgeStyle=orthogonalEdgeStyle;rounded=0;orthogonalLoop=1;jettySize=auto;html=1;entryX=0;entryY=0.5;entryDx=0;entryDy=0;exitX=0.5;exitY=0;exitDx=0;exitDy=0;" edge="1" parent="1" source="5LUECbAPxFqjS4Xc9n5A-189" target="5LUECbAPxFqjS4Xc9n5A-79">
          <mxGeometry relative="1" as="geometry">
            <mxPoint x="705" y="30" as="sourcePoint" />
          </mxGeometry>
        </mxCell>
        <mxCell id="5LUECbAPxFqjS4Xc9n5A-121" value="Board" style="rounded=1;whiteSpace=wrap;html=1;fillColor=#f0a30a;fontColor=#000000;strokeColor=#BD7000;" vertex="1" parent="1">
          <mxGeometry x="903.75" y="45" width="120" height="60" as="geometry" />
        </mxCell>
        <mxCell id="5LUECbAPxFqjS4Xc9n5A-125" value="" style="edgeStyle=orthogonalEdgeStyle;rounded=0;orthogonalLoop=1;jettySize=auto;html=1;" edge="1" parent="1" source="5LUECbAPxFqjS4Xc9n5A-122" target="5LUECbAPxFqjS4Xc9n5A-124">
          <mxGeometry relative="1" as="geometry" />
        </mxCell>
        <mxCell id="5LUECbAPxFqjS4Xc9n5A-122" value="Create Column" style="shape=parallelogram;perimeter=parallelogramPerimeter;whiteSpace=wrap;html=1;fixedSize=1;rounded=1;" vertex="1" parent="1">
          <mxGeometry x="890" y="200" width="147.5" height="70" as="geometry" />
        </mxCell>
        <mxCell id="5LUECbAPxFqjS4Xc9n5A-130" value="" style="edgeStyle=orthogonalEdgeStyle;rounded=0;orthogonalLoop=1;jettySize=auto;html=1;exitX=0.451;exitY=0.995;exitDx=0;exitDy=0;exitPerimeter=0;" edge="1" parent="1" source="5LUECbAPxFqjS4Xc9n5A-124" target="5LUECbAPxFqjS4Xc9n5A-129">
          <mxGeometry relative="1" as="geometry" />
        </mxCell>
        <mxCell id="5LUECbAPxFqjS4Xc9n5A-124" value="Insert Title" style="shape=parallelogram;perimeter=parallelogramPerimeter;whiteSpace=wrap;html=1;fixedSize=1;rounded=1;" vertex="1" parent="1">
          <mxGeometry x="890" y="355" width="147.5" height="70" as="geometry" />
        </mxCell>
        <mxCell id="5LUECbAPxFqjS4Xc9n5A-132" style="edgeStyle=orthogonalEdgeStyle;rounded=0;orthogonalLoop=1;jettySize=auto;html=1;entryX=0;entryY=0.5;entryDx=0;entryDy=0;endArrow=none;startFill=0;dashed=1;dashPattern=1 4;" edge="1" parent="1" source="5LUECbAPxFqjS4Xc9n5A-129" target="5LUECbAPxFqjS4Xc9n5A-131">
          <mxGeometry relative="1" as="geometry" />
        </mxCell>
        <mxCell id="5LUECbAPxFqjS4Xc9n5A-137" style="edgeStyle=orthogonalEdgeStyle;rounded=0;orthogonalLoop=1;jettySize=auto;html=1;entryX=0.5;entryY=0;entryDx=0;entryDy=0;endArrow=none;startFill=0;dashed=1;dashPattern=1 2;" edge="1" parent="1" source="5LUECbAPxFqjS4Xc9n5A-129" target="5LUECbAPxFqjS4Xc9n5A-136">
          <mxGeometry relative="1" as="geometry" />
        </mxCell>
        <mxCell id="5LUECbAPxFqjS4Xc9n5A-129" value="Have Title?" style="rhombus;whiteSpace=wrap;html=1;rounded=1;fillColor=#0050ef;fontColor=#ffffff;strokeColor=#001DBC;" vertex="1" parent="1">
          <mxGeometry x="917.5" y="495" width="80" height="80" as="geometry" />
        </mxCell>
        <mxCell id="5LUECbAPxFqjS4Xc9n5A-134" value="" style="edgeStyle=orthogonalEdgeStyle;rounded=0;orthogonalLoop=1;jettySize=auto;html=1;" edge="1" parent="1" source="5LUECbAPxFqjS4Xc9n5A-131" target="5LUECbAPxFqjS4Xc9n5A-133">
          <mxGeometry relative="1" as="geometry" />
        </mxCell>
        <mxCell id="5LUECbAPxFqjS4Xc9n5A-131" value="YES" style="rounded=1;whiteSpace=wrap;html=1;fillColor=#008a00;fontColor=#ffffff;strokeColor=#005700;" vertex="1" parent="1">
          <mxGeometry x="1132.5" y="525" width="50" height="20" as="geometry" />
        </mxCell>
        <mxCell id="5LUECbAPxFqjS4Xc9n5A-174" style="edgeStyle=orthogonalEdgeStyle;rounded=0;orthogonalLoop=1;jettySize=auto;html=1;" edge="1" parent="1" source="5LUECbAPxFqjS4Xc9n5A-133" target="5LUECbAPxFqjS4Xc9n5A-161">
          <mxGeometry relative="1" as="geometry" />
        </mxCell>
        <mxCell id="5LUECbAPxFqjS4Xc9n5A-133" value="New Column" style="rounded=1;whiteSpace=wrap;html=1;fillColor=#f0a30a;fontColor=#000000;strokeColor=#BD7000;" vertex="1" parent="1">
          <mxGeometry x="1097.5" y="205" width="120" height="60" as="geometry" />
        </mxCell>
        <mxCell id="5LUECbAPxFqjS4Xc9n5A-141" value="" style="edgeStyle=orthogonalEdgeStyle;rounded=0;orthogonalLoop=1;jettySize=auto;html=1;" edge="1" parent="1" source="5LUECbAPxFqjS4Xc9n5A-136" target="5LUECbAPxFqjS4Xc9n5A-140">
          <mxGeometry relative="1" as="geometry" />
        </mxCell>
        <mxCell id="5LUECbAPxFqjS4Xc9n5A-136" value="NO" style="rounded=1;whiteSpace=wrap;html=1;fillColor=#e51400;fontColor=#ffffff;strokeColor=#B20000;" vertex="1" parent="1">
          <mxGeometry x="932.5" y="635" width="50" height="20" as="geometry" />
        </mxCell>
        <mxCell id="5LUECbAPxFqjS4Xc9n5A-140" value="Does not create" style="shape=trapezoid;perimeter=trapezoidPerimeter;whiteSpace=wrap;html=1;fixedSize=1;rounded=1;" vertex="1" parent="1">
          <mxGeometry x="897.5" y="715" width="120" height="60" as="geometry" />
        </mxCell>
        <mxCell id="5LUECbAPxFqjS4Xc9n5A-160" value="" style="edgeStyle=orthogonalEdgeStyle;rounded=0;orthogonalLoop=1;jettySize=auto;html=1;" edge="1" parent="1" source="5LUECbAPxFqjS4Xc9n5A-161" target="5LUECbAPxFqjS4Xc9n5A-163">
          <mxGeometry relative="1" as="geometry" />
        </mxCell>
        <mxCell id="5LUECbAPxFqjS4Xc9n5A-161" value="Create Card&amp;nbsp;" style="shape=parallelogram;perimeter=parallelogramPerimeter;whiteSpace=wrap;html=1;fixedSize=1;rounded=1;" vertex="1" parent="1">
          <mxGeometry x="1337.5" y="200" width="147.5" height="70" as="geometry" />
        </mxCell>
        <mxCell id="5LUECbAPxFqjS4Xc9n5A-162" value="" style="edgeStyle=orthogonalEdgeStyle;rounded=0;orthogonalLoop=1;jettySize=auto;html=1;exitX=0.451;exitY=0.995;exitDx=0;exitDy=0;exitPerimeter=0;" edge="1" parent="1" source="5LUECbAPxFqjS4Xc9n5A-163" target="5LUECbAPxFqjS4Xc9n5A-166">
          <mxGeometry relative="1" as="geometry" />
        </mxCell>
        <mxCell id="5LUECbAPxFqjS4Xc9n5A-163" value="Insert Title" style="shape=parallelogram;perimeter=parallelogramPerimeter;whiteSpace=wrap;html=1;fixedSize=1;rounded=1;" vertex="1" parent="1">
          <mxGeometry x="1337.5" y="355" width="147.5" height="70" as="geometry" />
        </mxCell>
        <mxCell id="5LUECbAPxFqjS4Xc9n5A-164" style="edgeStyle=orthogonalEdgeStyle;rounded=0;orthogonalLoop=1;jettySize=auto;html=1;entryX=0;entryY=0.5;entryDx=0;entryDy=0;endArrow=none;startFill=0;dashed=1;dashPattern=1 2;" edge="1" parent="1" source="5LUECbAPxFqjS4Xc9n5A-166" target="5LUECbAPxFqjS4Xc9n5A-168">
          <mxGeometry relative="1" as="geometry" />
        </mxCell>
        <mxCell id="5LUECbAPxFqjS4Xc9n5A-165" style="edgeStyle=orthogonalEdgeStyle;rounded=0;orthogonalLoop=1;jettySize=auto;html=1;entryX=0.5;entryY=0;entryDx=0;entryDy=0;endArrow=none;startFill=0;dashed=1;dashPattern=1 2;" edge="1" parent="1" source="5LUECbAPxFqjS4Xc9n5A-166" target="5LUECbAPxFqjS4Xc9n5A-171">
          <mxGeometry relative="1" as="geometry" />
        </mxCell>
        <mxCell id="5LUECbAPxFqjS4Xc9n5A-166" value="Have Title?" style="rhombus;whiteSpace=wrap;html=1;rounded=1;fillColor=#0050ef;fontColor=#ffffff;strokeColor=#001DBC;" vertex="1" parent="1">
          <mxGeometry x="1365" y="495" width="80" height="80" as="geometry" />
        </mxCell>
        <mxCell id="5LUECbAPxFqjS4Xc9n5A-167" value="" style="edgeStyle=orthogonalEdgeStyle;rounded=0;orthogonalLoop=1;jettySize=auto;html=1;entryX=0.5;entryY=1;entryDx=0;entryDy=0;" edge="1" parent="1" source="5LUECbAPxFqjS4Xc9n5A-168" target="5LUECbAPxFqjS4Xc9n5A-169">
          <mxGeometry relative="1" as="geometry">
            <mxPoint x="1597.4999999999995" y="265" as="targetPoint" />
          </mxGeometry>
        </mxCell>
        <mxCell id="5LUECbAPxFqjS4Xc9n5A-168" value="YES" style="rounded=1;whiteSpace=wrap;html=1;fillColor=#008a00;fontColor=#ffffff;strokeColor=#005700;" vertex="1" parent="1">
          <mxGeometry x="1572.5" y="525" width="50" height="20" as="geometry" />
        </mxCell>
        <mxCell id="5LUECbAPxFqjS4Xc9n5A-169" value="New Card" style="rounded=1;whiteSpace=wrap;html=1;fillColor=#f0a30a;fontColor=#000000;strokeColor=#BD7000;" vertex="1" parent="1">
          <mxGeometry x="1537.5" y="205" width="120" height="60" as="geometry" />
        </mxCell>
        <mxCell id="5LUECbAPxFqjS4Xc9n5A-170" value="" style="edgeStyle=orthogonalEdgeStyle;rounded=0;orthogonalLoop=1;jettySize=auto;html=1;" edge="1" parent="1" source="5LUECbAPxFqjS4Xc9n5A-171" target="5LUECbAPxFqjS4Xc9n5A-172">
          <mxGeometry relative="1" as="geometry" />
        </mxCell>
        <mxCell id="5LUECbAPxFqjS4Xc9n5A-171" value="NO" style="rounded=1;whiteSpace=wrap;html=1;fillColor=#e51400;fontColor=#ffffff;strokeColor=#B20000;" vertex="1" parent="1">
          <mxGeometry x="1380" y="635" width="50" height="20" as="geometry" />
        </mxCell>
        <mxCell id="5LUECbAPxFqjS4Xc9n5A-172" value="Does not create" style="shape=trapezoid;perimeter=trapezoidPerimeter;whiteSpace=wrap;html=1;fixedSize=1;rounded=1;" vertex="1" parent="1">
          <mxGeometry x="1345" y="715" width="120" height="60" as="geometry" />
        </mxCell>
        <mxCell id="5LUECbAPxFqjS4Xc9n5A-180" value="Enter Point" style="ellipse;whiteSpace=wrap;html=1;aspect=fixed;fillColor=#647687;fontColor=#ffffff;strokeColor=#314354;" vertex="1" parent="1">
          <mxGeometry x="-230" y="200" width="80" height="80" as="geometry" />
        </mxCell>
        <mxCell id="5LUECbAPxFqjS4Xc9n5A-183" value="Screen" style="rounded=1;whiteSpace=wrap;html=1;fillColor=#6a00ff;fontColor=#ffffff;strokeColor=#3700CC;" vertex="1" parent="1">
          <mxGeometry x="-250" y="305" width="120" height="60" as="geometry" />
        </mxCell>
        <mxCell id="5LUECbAPxFqjS4Xc9n5A-184" value="Actions" style="shape=parallelogram;perimeter=parallelogramPerimeter;whiteSpace=wrap;html=1;fixedSize=1;" vertex="1" parent="1">
          <mxGeometry x="-440" y="325" width="120" height="60" as="geometry" />
        </mxCell>
        <mxCell id="5LUECbAPxFqjS4Xc9n5A-185" value="Messages" style="shape=callout;whiteSpace=wrap;html=1;perimeter=calloutPerimeter;" vertex="1" parent="1">
          <mxGeometry x="-435" y="120" width="120" height="80" as="geometry" />
        </mxCell>
        <mxCell id="5LUECbAPxFqjS4Xc9n5A-186" value="Conditionals" style="rhombus;whiteSpace=wrap;html=1;fillColor=#0050ef;fontColor=#ffffff;strokeColor=#001DBC;" vertex="1" parent="1">
          <mxGeometry x="-230" y="100" width="80" height="80" as="geometry" />
        </mxCell>
        <mxCell id="5LUECbAPxFqjS4Xc9n5A-188" value="Do nothing" style="shape=trapezoid;perimeter=trapezoidPerimeter;whiteSpace=wrap;html=1;fixedSize=1;" vertex="1" parent="1">
          <mxGeometry x="-435" y="225" width="120" height="60" as="geometry" />
        </mxCell>
        <mxCell id="5LUECbAPxFqjS4Xc9n5A-189" value="Main Screen" style="rounded=1;whiteSpace=wrap;html=1;fillColor=#6a00ff;fontColor=#ffffff;strokeColor=#3700CC;" vertex="1" parent="1">
          <mxGeometry x="645" y="45" width="120" height="60" as="geometry" />
        </mxCell>
        <mxCell id="5LUECbAPxFqjS4Xc9n5A-191" value="Component" style="rounded=1;whiteSpace=wrap;html=1;fillColor=#f0a30a;fontColor=#000000;strokeColor=#BD7000;" vertex="1" parent="1">
          <mxGeometry x="-250" y="405" width="120" height="60" as="geometry" />
        </mxCell>
        <mxCell id="5LUECbAPxFqjS4Xc9n5A-192" value="&lt;font style=&quot;font-size: 24px;&quot;&gt;SUMARY&lt;/font&gt;" style="text;html=1;align=center;verticalAlign=middle;whiteSpace=wrap;rounded=0;" vertex="1" parent="1">
          <mxGeometry x="-360" y="35" width="120" height="40" as="geometry" />
        </mxCell>
      </root>
    </mxGraphModel>
  </diagram>
</mxfile>
